<?xml version="1.0" encoding="utf-8"?>
<!-- Generator: Adobe Illustrator 25.2.1, SVG Export Plug-In . SVG Version: 6.00 Build 0)  -->
<svg version="1.1" id="Слой_1" xmlns="http://www.w3.org/2000/svg" xmlns:xlink="http://www.w3.org/1999/xlink" x="0px" y="0px"
	 viewBox="0 0 980 850" style="enable-background:new 0 0 980 850;" xml:space="preserve">
<style type="text/css">
	.st0{fill:#FFFFFF;stroke:#000000;stroke-width:0.1;stroke-miterlimit:1;}
</style>
<g transform="translate(0.000000,850.000000) scale(0.100000,-0.100000)">
	<path class="st0" d="M1379,8490l-1025-5l-70-35c-83-42-198-152-233-223c-18-39-25-75-32-175C7,7884-4,2958,7,2585l9-290l29-55
		c43-79,145-178,237-228l77-42h2596h2595v158v159l-2553,6c-1671,5-2565,11-2589,17c-45,13-55,38-70,182c-6,66-12,1078-15,2835
		l-5,2732l53,56l52,55h3406c2030,0,3497-4,3631-10c244-10,319-21,344-49c30-33,37-115,43-513l6-398h164h163l-5,248
		c-15,710-15,710-82,812c-48,72-138,158-188,181c-68,30-203,39-670,49C6770,8500,3188,8500,1379,8490z"/>
	<path class="st0" d="M1620,7841c-965-7-914-3-938-75c-30-94-34-470-30-2774l5-2293l26-26c15-15,45-30,74-36c30-6,910-11,2421-14
		l2372-4v165v166H3260H970v2285v2285h3105h3105v-172v-171l138,7c75,4,152,9,171,13l33,6l-5,241c-5,262-13,310-58,355
		c-27,27-31,28-176,34C7072,7843,2653,7849,1620,7841z"/>
	<path class="st0" d="M7415,6860c-445-22-802-130-1056-320c-82-61-223-207-276-285c-59-88-108-188-153-315l-40-111V3537
		c1-1266,5-2350,10-2422c13-185,66-334,180-507c175-266,509-470,912-557c159-34,352-44,853-44c636-1,776,13,1040,99
		c216,70,415,182,553,309c145,135,215,245,302,480l53,140l1,2275c1,2354,0,2417-39,2605c-16,78-102,262-165,356
		c-201,294-563,489-1043,559C8313,6865,7797,6878,7415,6860z M8699,6480c72-23,168-56,213-75c261-109,433-286,507-520
		c26-82,61-261,61-314v-21H7840c-1555,0-1640,1-1640,18c0,40,31,213,50,282c66,233,237,427,472,534c86,39,236,88,323,106
		c111,23,241,27,881,29l642,1L8699,6480z M9472,3438c-2-981-5-1789-7-1795c-4-10-338-13-1630-13H6210v558c0,306-3,1114-7,1795
		l-6,1237h1639h1640L9472,3438z M9476,1243c-32-276-108-448-264-595c-155-146-359-237-647-289c-272-48-1180-48-1450,0
		c-557,100-832,355-904,838c-6,39-11,79-11,87c0,14,162,16,1641,16h1641L9476,1243z"/>
	<path class="st0" d="M7307,6191c-64-13-117-78-117-143c1-44,33-113,62-132c45-29,151-36,588-36c555,0,587,5,631,92
		c38,75,8,181-60,211C8381,6197,7371,6203,7307,6191z"/>
	<path class="st0" d="M7600,952c-73-37-101-160-52-230c45-63,64-67,292-67c187,0,208,2,244,21c76,39,99,138,51,219
		c-40,70-62,75-297,75C7665,970,7630,967,7600,952z"/>
	<path class="st0" d="M3918,1635c-2-173-6-317-10-320c-3-3-464-10-1024-15c-561-5-1131-12-1267-16c-282-8-272-4-302-95
		c-15-46-15-50,7-106c20-51,28-59,61-70c99-33,242-35,2216-40l1974-5l-8,114c-4,62-10,136-14,163l-6,50l-647,3l-648,2v325v325h-164
		h-164L3918,1635z"/>
</g>
<g transform="translate(0.000000,512.000000) scale(0.100000,-0.100000)">
	<path class="st0" d="M3796,3359.2c-29.6-14.8-51-46.6-56.9-85l-5.2-28.1h-400.7h-400.7l-25.1-17c-40.7-27.4-51-56.2-51-147.1v-79.8
		h1256.8H5370v79.8c0,90.9-10.4,119.8-51,147.1l-25.1,17h-400.7h-400.7l-5.2,28.1c-5.9,39.2-28.1,71-58.4,85
		c-22.9,11.1-59.9,12.6-317.2,12.6C3855.9,3371.7,3818.2,3370.3,3796,3359.2z"/>
	<path class="st0" d="M2982,2738.2c-0.7-42.9,240.3-2426.4,247.7-2453c21.4-76.1,72.5-131.6,150.8-164.1l41.4-17h691.3h691.3
		l41.4,17c78.4,32.5,129.4,88,150.8,164.1c7.4,26.6,248.4,2410.1,247.7,2453c0,3-508.6,5.2-1131.1,5.2
		C3491.4,2743.3,2982,2741.1,2982,2738.2z M3509.2,2365.5c34.7-9.6,78.4-46.6,90.9-78.4c6.7-14.8,34-304.6,74.7-792.5
		c70.2-850.9,69.5-805.1,20.7-854.6c-45.8-45.1-107.9-51.8-159-16.3c-56.2,37.7-47.3-23.7-119,837.6
		c-49.5,587.8-63.6,788.8-58.4,808.8c11.8,43.6,35.5,73.9,68.8,88.7C3464.1,2375.9,3471.5,2376.6,3509.2,2365.5z M4181.9,2353
		c11.8-6.7,28.8-22.2,37.7-33.3l15.5-20.7l2.2-808.1l1.5-808.1l-16.3-24.4c-30.3-43.6-52.5-55.4-109.4-55.4
		c-56.2,0-79.1,11.8-108.7,55.4l-17,24.4v797.7c0,850.9-0.7,825.8,35.5,858.3C4062.2,2374.4,4135.4,2380.3,4181.9,2353z
		 M4805.2,2359.6c35.5-16.3,59.9-45.1,65.8-77.6c4.4-20-115.3-1507.4-126.4-1581.4c-11.8-77.6-112.4-123.5-192.2-87.2
		c-40.7,18.5-62.1,54-62.1,103.5c0,21.4,28.1,380.7,62.8,797.7c58.4,706,63.6,761.5,79.1,792.5
		C4662.5,2366.3,4738.6,2389.9,4805.2,2359.6z"/>
</g>
<g transform="translate(0.000000,512.000000) scale(0.100000,-0.100000)">
	<path class="st0" d="M7601.8,1232c-22.1-11.1-38.1-34.8-42.5-63.5l-3.9-21h-299.5h-299.5l-18.8-12.7c-30.4-20.4-38.1-42-38.1-109.9
		v-59.7h939.2h939.2v59.7c0,68-7.7,89.5-38.1,109.9l-18.8,12.7h-299.5H8122l-3.9,21c-4.4,29.3-21,53-43.6,63.5
		c-17.1,8.3-44.8,9.4-237,9.4C7646.6,1241.3,7618.4,1240.2,7601.8,1232z"/>
	<path class="st0" d="M6993.5,767.9c-0.6-32,179.6-1813.3,185.1-1833.2c16-56.9,54.1-98.3,112.7-122.7l30.9-12.7h516.6h516.6
		l30.9,12.7c58.6,24.3,96.7,65.7,112.7,122.7c5.5,19.9,185.6,1801.1,185.1,1833.2c0,2.2-380.1,3.9-845.3,3.9
		C7374.2,771.7,6993.5,770.1,6993.5,767.9z M7387.4,489.4c26-7.2,58.6-34.8,68-58.6c5-11.1,25.4-227.6,55.8-592.3
		c52.5-635.9,51.9-601.7,15.5-638.7c-34.3-33.7-80.7-38.7-118.8-12.2c-42,28.2-35.4-17.7-89,626c-37,439.2-47.5,589.5-43.6,604.4
		c8.8,32.6,26.5,55.2,51.4,66.3C7353.7,497.1,7359.3,497.7,7387.4,489.4z M7890.2,480c8.8-5,21.5-16.6,28.2-24.9l11.6-15.5
		l1.7-603.9l1.1-603.9l-12.2-18.2c-22.7-32.6-39.2-41.4-81.8-41.4c-42,0-59.1,8.8-81.2,41.4l-12.7,18.2v596.1
		c0,635.9-0.6,617.1,26.5,641.5C7800.7,496,7855.4,500.4,7890.2,480z M8356,485c26.5-12.2,44.8-33.7,49.2-58
		c3.3-14.9-86.2-1126.5-94.5-1181.8c-8.8-58-84-92.3-143.6-65.2c-30.4,13.8-46.4,40.3-46.4,77.3c0,16,21,284.5,47,596.1
		c43.6,527.6,47.5,569.1,59.1,592.3C8249.3,489.9,8306.2,507.6,8356,485z"/>
</g>
</svg>
