<?xml version="1.0" encoding="utf-8"?>
<!-- Generator: Adobe Illustrator 25.2.1, SVG Export Plug-In . SVG Version: 6.00 Build 0)  -->
<svg version="1.1" id="Слой_1" xmlns="http://www.w3.org/2000/svg" xmlns:xlink="http://www.w3.org/1999/xlink" x="0px" y="0px"
	 viewBox="0 0 512 512" style="enable-background:new 0 0 512 512;" xml:space="preserve">
<style type="text/css">
	.st0{fill:#FFFFFF;stroke:#000000;stroke-miterlimit:10;}
</style>
<g transform="translate(0.000000,512.000000) scale(0.100000,-0.100000)">
	<path class="st0" d="M1214,3536c-88-39-154-139-154-236c0-226,272-334,435-173c65,65,87,186,48,274c-24,55-75,106-128,130
		C1367,3553,1260,3556,1214,3536z"/>
	<path class="st0" d="M1855,3484c-77-40-109-99-103-194c4-84,39-142,101-171c40-18,81-19,1042-19c626,0,1013,4,1035,10
		c43,12,93,61,114,112c39,91-1,211-83,255l-44,23H2901C1999,3500,1882,3498,1855,3484z"/>
	<path class="st0" d="M1205,2786c-91-43-145-126-145-226c0-141,111-250,255-250c141,1,247,108,247,250
		C1562,2746,1373,2866,1205,2786z"/>
	<path class="st0" d="M1853,2741c-26-12-52-35-70-62c-25-37-28-52-28-119s3-82,28-119c18-27,44-50,70-62c40-18,81-19,1049-19
		c687,0,1016,3,1035,11c68,25,123,110,123,189s-55,164-123,189c-19,8-348,11-1035,11C1934,2760,1893,2759,1853,2741z"/>
	<path class="st0" d="M1205,2047c-92-45-144-127-145-227c0-98,66-199,156-236c48-20,151-17,199,5c90,40,147,131,147,231
		c0,139-96,239-236,247C1266,2070,1247,2067,1205,2047z"/>
	<path class="st0" d="M1853,2001c-62-29-97-87-101-171c-5-80,18-133,75-177l36-28l1027-3l1026-2l45,23c82,44,122,164,83,255
		c-21,51-71,100-114,112c-22,6-409,10-1035,10C1934,2020,1893,2019,1853,2001z"/>
</g>
</svg>
