<?xml version="1.0" standalone="no"?>
<!DOCTYPE svg PUBLIC "-//W3C//DTD SVG 20010904//EN"
 "http://www.w3.org/TR/2001/REC-SVG-20010904/DTD/svg10.dtd">
<svg version="1.0" xmlns="http://www.w3.org/2000/svg"
 width="512.000000pt" height="512.000000pt" viewBox="0 0 512.000000 512.000000"
 preserveAspectRatio="xMidYMid meet">

<g transform="translate(0.000000,512.000000) scale(0.100000,-0.100000)"
fill="#000000" stroke="none">
<path d="M2131 4753 c-40 -20 -69 -63 -77 -115 l-7 -38 -542 0 -542 0 -34 -23
c-55 -37 -69 -76 -69 -199 l0 -108 1700 0 1700 0 0 108 c0 123 -14 162 -69
199 l-34 23 -542 0 -542 0 -7 38 c-8 53 -38 96 -79 115 -31 15 -81 17 -429 17
-346 0 -397 -2 -427 -17z"/>
<path d="M1030 3913 c-1 -58 325 -3282 335 -3318 29 -103 98 -178 204 -222
l56 -23 935 0 935 0 56 23 c106 44 175 119 204 222 10 36 336 3260 335 3318 0
4 -688 7 -1530 7 -841 0 -1530 -3 -1530 -7z m713 -504 c47 -13 106 -63 123
-106 9 -20 46 -412 101 -1072 95 -1151 94 -1089 28 -1156 -62 -61 -146 -70
-215 -22 -76 51 -64 -32 -161 1133 -67 795 -86 1067 -79 1094 16 59 48 100 93
120 49 23 59 24 110 9z m910 -17 c16 -9 39 -30 51 -45 l21 -28 3 -1093 2
-1093 -22 -33 c-41 -59 -71 -75 -148 -75 -76 0 -107 16 -147 75 l-23 33 0
1079 c0 1151 -1 1117 48 1161 53 48 152 56 215 19z m843 9 c48 -22 81 -61 89
-105 6 -27 -156 -2039 -171 -2139 -16 -105 -152 -167 -260 -118 -55 25 -84 73
-84 140 0 29 38 515 85 1079 79 955 86 1030 107 1072 41 80 144 112 234 71z"/>
</g>
</svg>
